<svg width="1136" height="305" viewBox="0 0 1136 305" fill="none" xmlns="http://www.w3.org/2000/svg">
<path d="M265.909 9.0909V300H231.818L73.2955 71.5909H70.4545V300H35.2273V9.0909H69.3182L228.409 238.068H231.25V9.0909H265.909ZM331.854 300V81.8182H365.376V300H331.854ZM348.899 45.4545C342.365 45.4545 336.731 43.2292 331.996 38.7784C327.356 34.3277 325.036 28.9773 325.036 22.7273C325.036 16.4773 327.356 11.1269 331.996 6.67613C336.731 2.22538 342.365 0 348.899 0C355.433 0 361.02 2.22538 365.661 6.67613C370.395 11.1269 372.763 16.4773 372.763 22.7273C372.763 28.9773 370.395 34.3277 365.661 38.7784C361.02 43.2292 355.433 45.4545 348.899 45.4545ZM521.662 81.8182V110.227H408.594V81.8182H521.662ZM441.548 29.5455H475.071V237.5C475.071 246.97 476.444 254.072 479.19 258.807C482.031 263.447 485.63 266.572 489.986 268.182C494.437 269.697 499.124 270.455 504.048 270.455C507.741 270.455 510.772 270.265 513.139 269.886C515.507 269.413 517.401 269.034 518.821 268.75L525.639 298.864C523.366 299.716 520.194 300.568 516.122 301.42C512.05 302.367 506.889 302.841 500.639 302.841C491.17 302.841 481.889 300.805 472.798 296.733C463.802 292.661 456.321 286.458 450.355 278.125C444.484 269.792 441.548 259.28 441.548 246.591V29.5455ZM658.381 304.545C638.684 304.545 621.402 299.858 606.534 290.483C591.761 281.108 580.208 267.992 571.875 251.136C563.636 234.28 559.517 214.583 559.517 192.045C559.517 169.318 563.636 149.479 571.875 132.528C580.208 115.578 591.761 102.415 606.534 93.0398C621.402 83.6648 638.684 78.9773 658.381 78.9773C678.078 78.9773 695.313 83.6648 710.085 93.0398C724.953 102.415 736.506 115.578 744.744 132.528C753.078 149.479 757.244 169.318 757.244 192.045C757.244 214.583 753.078 234.28 744.744 251.136C736.506 267.992 724.953 281.108 710.085 290.483C695.313 299.858 678.078 304.545 658.381 304.545ZM658.381 274.432C673.343 274.432 685.653 270.597 695.312 262.926C704.972 255.256 712.121 245.17 716.761 232.67C721.402 220.17 723.722 206.629 723.722 192.045C723.722 177.462 721.402 163.873 716.761 151.278C712.121 138.684 704.972 128.504 695.312 120.739C685.653 112.973 673.343 109.091 658.381 109.091C643.419 109.091 631.108 112.973 621.449 120.739C611.79 128.504 604.64 138.684 600 151.278C595.36 163.873 593.04 177.462 593.04 192.045C593.04 206.629 595.36 220.17 600 232.67C604.64 245.17 611.79 255.256 621.449 262.926C631.108 270.597 643.419 274.432 658.381 274.432ZM808.416 300V81.8182H840.803V114.773H843.075C847.053 103.977 854.25 95.2178 864.666 88.4943C875.083 81.7708 886.825 78.4091 899.893 78.4091C902.356 78.4091 905.433 78.4564 909.126 78.5511C912.82 78.6458 915.613 78.7879 917.507 78.9773V113.068C916.371 112.784 913.767 112.358 909.695 111.79C905.717 111.127 901.503 110.795 897.053 110.795C886.447 110.795 876.977 113.021 868.643 117.472C860.405 121.828 853.871 127.888 849.041 135.653C844.306 143.324 841.939 152.083 841.939 161.932V300H808.416Z" fill="white"/>
<circle cx="1046" cy="77.7443" r="53.2143" stroke="url(#paint0_linear_153_81)" stroke-width="35"/>
<circle cx="1046" cy="212.855" r="70" stroke="url(#paint1_linear_153_81)" stroke-width="40"/>
<defs>
<linearGradient id="paint0_linear_153_81" x1="1116.71" y1="77.7443" x2="975.286" y2="77.7443" gradientUnits="userSpaceOnUse">
<stop stop-color="#FF8A80"/>
<stop offset="0.5" stop-color="#E0B7C6"/>
<stop offset="1" stop-color="#A8BAD9"/>
</linearGradient>
<linearGradient id="paint1_linear_153_81" x1="1136" y1="212.855" x2="956" y2="212.855" gradientUnits="userSpaceOnUse">
<stop stop-color="#FF8A80"/>
<stop offset="0.5" stop-color="#E0B7C6"/>
<stop offset="1" stop-color="#A8BAD9"/>
</linearGradient>
</defs>
</svg>
